<svg version="1" xmlns="http://www.w3.org/2000/svg" width="2666.667" height="2666.667" viewBox="0 0 2000.000000 2000.000000"><path d="M530 134.9c-3 .9-6.6 2.3-8 3.1-1.4.7-66.4 44.3-144.5 96.9-85.9 57.9-143.8 97.5-146.7 100.3-5.9 6.1-11.2 16.7-12.9 25.8-2.5 13.9 2.2 29.5 12 40.2 3.6 3.9 25.8 19.4 86.5 60.3l81.7 55-199.1.3L0 517v184h101v301H0v477.5l5-7.8c28.4-44.3 72.2-77.6 122-92.9 14-4.2 31.7-7.6 47-8.8 9.3-.8 72.3-1 202.5-.8 208 .4 193.9 0 220.5 6.5 63 15.3 116.4 58.3 145.1 116.8 10.6 21.7 16.8 41.5 20.5 65.8 1.8 11.8 2.5 45.8 1.1 52.9l-.8 3.8H1542v-187h97v-195h-97V700.5l-91.8-91.8-91.7-91.7-333.9-.2-333.9-.3 82.2-55.4c56.6-38.1 83.5-56.8 86.2-59.9 17.9-20.4 16-50.9-4.4-68.7-4.3-3.7-101.7-69.7-260-176.1-32.7-22-35.9-23.4-50.6-23.3-5.3 0-10.7.7-14.1 1.8zm150 196.6c28.3 19.1 52.3 35.1 53.4 35.7 2.8 1.5 17.1-8.6-110.2 77.2-61.5 41.4-78.8 52.6-80.1 52-2.8-1.4-188-126.4-188.5-127.3-.3-.4 42.3-29.6 94.6-64.9l95.1-64.1 42.1 28.3c23.2 15.6 65.3 44 93.6 63.1zm88.8 519.7l.2 150.8H199V700l284.8.2 284.7.3.3 150.7zm337.2 213.3V1428H867V701h239v363.5zm338 0V1428h-240V701h240v363.5z"/><path d="M169.5 1463.6c-26.3 4.7-48.9 16.6-68.1 35.8-23 23-35.3 50.6-37 83.1-3 55.6 31.4 106.8 84.4 125.9 26.3 9.4 59 9.4 85.4 0 43.9-15.7 75.8-54 83.4-100.2 2.1-12.6 1.3-34.9-1.5-47.5-4-17.4-13.1-36.3-24.1-50.1-20.3-25.3-47.8-41.6-79.4-47.1-11-1.9-32.3-1.8-43.1.1zM521.9 1463.5c-53.2 10-94.2 51.1-103.5 103.4-2 11.5-1.9 33.2.1 44 4.8 24.8 15.4 46.1 31.7 63.6 42.4 45.6 109.2 54.3 162.5 21.4 10.8-6.7 29.9-25.3 37-35.9 9.7-14.5 16.1-29.8 19.9-47.5 2.3-11 2.4-34.9.1-46.7-9.8-49.8-46-88.1-95.1-100.4-8.5-2.2-12.9-2.7-27.6-3-12.4-.2-19.7.1-25.1 1.1zM0 1805v49h1542v-98H0v49z"/></svg>